HIERARCHY
ROOT Hips
{
	OFFSET 0.000000 0.000000 0.000000
	CHANNELS 6 Xposition Yposition Zposition Zrotation Yrotation Xrotation 
	JOINT LHipJoint
	{
		OFFSET 0.000000 0.000000 0.000000
		CHANNELS 3 Zrotation Yrotation Xrotation
		JOINT LeftUpLeg
		{
			OFFSET 1.363060 -1.794630 0.839290
			CHANNELS 3 Zrotation Yrotation Xrotation
			JOINT LeftLeg
			{
				OFFSET 2.448110 -6.726130 0.000000
				CHANNELS 3 Zrotation Yrotation Xrotation
				JOINT LeftFoot
				{
					OFFSET 2.562200 -7.039590 0.000000
					CHANNELS 3 Zrotation Yrotation Xrotation
					JOINT LeftToeBase
					{
						OFFSET 0.157640 -0.433110 2.322550
						CHANNELS 3 Zrotation Yrotation Xrotation
						End Site
						{
							OFFSET 0.000000 0.000000 0.000000
						}
					}
				}
			}
		}
	}
	JOINT RHipJoint
	{
		OFFSET 0.000000 0.000000 0.000000
		CHANNELS 3 Zrotation Yrotation Xrotation
		JOINT RightUpLeg
		{
			OFFSET -1.305520 -1.794630 0.839290
			CHANNELS 3 Zrotation Yrotation Xrotation
			JOINT RightLeg
			{
				OFFSET -2.542530 -6.985550 0.000000
				CHANNELS 3 Zrotation Yrotation Xrotation
				JOINT RightFoot
				{
					OFFSET -2.568260 -7.056230 0.000000
					CHANNELS 3 Zrotation Yrotation Xrotation
					JOINT RightToeBase
					{
						OFFSET -0.164730 -0.452590 2.363150
						CHANNELS 3 Zrotation Yrotation Xrotation
						End Site
						{
							OFFSET 0.000000 0.000000 0.000000
						}
					}
				}
			}
		}
	}
	JOINT LowerBack
	{
		OFFSET 0.000000 0.000000 0.000000
		CHANNELS 3 Zrotation Yrotation Xrotation
		JOINT Spine
		{
			OFFSET 0.028270 2.035590 -0.193380
			CHANNELS 3 Zrotation Yrotation Xrotation
			JOINT Spine1
			{
				OFFSET 0.056720 2.048850 -0.042750
				CHANNELS 3 Zrotation Yrotation Xrotation
				JOINT Neck
				{
					OFFSET 0.000000 0.000000 0.000000
					CHANNELS 3 Zrotation Yrotation Xrotation
					JOINT Neck1
					{
						OFFSET -0.054170 1.746240 0.172020
						CHANNELS 3 Zrotation Yrotation Xrotation
						JOINT Head
						{
							OFFSET 0.104070 1.761360 -0.123970
							CHANNELS 3 Zrotation Yrotation Xrotation
							End Site
							{
								OFFSET 0.000000 0.000000 0.000000
							}
						}
					}
				}
				JOINT LeftShoulder
				{
					OFFSET 0.000000 0.000000 0.000000
					CHANNELS 3 Zrotation Yrotation Xrotation
					JOINT LeftArm
					{
						OFFSET 3.362410 1.200890 -0.311210
						CHANNELS 3 Zrotation Yrotation Xrotation
						JOINT LeftForeArm
						{
							OFFSET 4.983000 -0.000000 -0.000000
							CHANNELS 3 Zrotation Yrotation Xrotation
							JOINT LeftHand
							{
								OFFSET 3.483560 -0.000000 -0.000000
								CHANNELS 3 Zrotation Yrotation Xrotation
								JOINT LeftFingerBase
								{
									OFFSET 0.000000 0.000000 0.000000
									CHANNELS 3 Zrotation Yrotation Xrotation
									JOINT LeftHandIndex1
									{
										OFFSET 0.715260 -0.000000 -0.000000
										CHANNELS 3 Zrotation Yrotation Xrotation
										End Site
										{
											OFFSET 0.000000 0.000000 0.000000
										}
									}
								}
								JOINT LThumb
								{
									OFFSET 0.000000 0.000000 0.000000
									CHANNELS 3 Zrotation Yrotation Xrotation
									End Site
									{
										OFFSET 0.000000 0.000000 0.000000
									}
								}
							}
						}
					}
				}
				JOINT RightShoulder
				{
					OFFSET 0.000000 0.000000 0.000000
					CHANNELS 3 Zrotation Yrotation Xrotation
					JOINT RightArm
					{
						OFFSET -3.136600 1.374050 -0.404650
						CHANNELS 3 Zrotation Yrotation Xrotation
						JOINT RightForeArm
						{
							OFFSET -5.241900 -0.000000 -0.000000
							CHANNELS 3 Zrotation Yrotation Xrotation
							JOINT RightHand
							{
								OFFSET -3.444170 -0.000000 -0.000000
								CHANNELS 3 Zrotation Yrotation Xrotation
								JOINT RightFingerBase
								{
									OFFSET 0.000000 0.000000 0.000000
									CHANNELS 3 Zrotation Yrotation Xrotation
									JOINT RightHandIndex1
									{
										OFFSET -0.622530 -0.000000 -0.000000
										CHANNELS 3 Zrotation Yrotation Xrotation
										End Site
										{
											OFFSET 0.000000 0.000000 0.000000
										}
									}
								}
								JOINT RThumb
								{
									OFFSET 0.000000 0.000000 0.000000
									CHANNELS 3 Zrotation Yrotation Xrotation
									End Site
									{
										OFFSET 0.000000 0.000000 0.000000
									}
								}
							}
						}
					}
				}
			}
		}
	}
}
MOTION
Frames: 4
Frame Time: 0.008333
25.087680 16.180976 4.469126 -10.068268 -87.315294 8.311554 -11.084559 6.476863 0.921929 4.723211 9.159676 22.557132 0.025338 2.233669 19.973570 1.019708 2.142843 19.143214 0.512800 -0.000000 -93.812900 9.525770 -0.305861 -0.013843 11.215109 -13.541434 -37.429723 1.541891 -2.583315 41.635866 -1.002323 -3.136949 -8.998882 -0.005200 0.000000 -28.298400 7.074531 -6.047578 -3.589054 1.349566 -6.664709 -3.032387 -4.874629 -6.618944 2.514343 9.175723 -23.675902 -10.709821 -2.484496 -0.155960 -0.740104 0.000000 0.000000 0.000000 2.101403 7.017996 1.574863 -34.281310 -10.789695 8.295802 -2.042490 -47.863080 0.006247 -2.106826 1.199850 -0.017130 -0.092777 0.153782 0.000000 0.000000 0.000000 0.000000 0.000000 0.000000 0.000000 16.327935 -23.056689 -0.446484 68.107482 -21.047360 0.757751 4.014932 27.393322 -0.000518 6.079780 1.102799 0.057095 0.062775 0.019961 -0.000000 0.000000 0.000000 0.000000 0.000000 0.000000 0.000000 
24.904215 16.191254 4.419614 -11.979440 -87.136190 10.062034 -11.211012 6.558373 1.028192 5.430123 8.737157 22.158493 0.137554 2.313611 21.274368 1.078823 0.859771 21.742844 -0.092700 0.000000 -93.099200 9.489669 -0.365869 -0.090402 11.361158 -13.545512 -36.616909 1.523281 -2.571195 42.178037 -1.050402 -3.268399 -9.855550 0.077200 -0.000000 -26.384300 7.182622 -6.013110 -3.650527 1.360844 -6.641072 -3.049917 -4.898157 -6.593534 2.500620 9.188005 -23.686692 -10.683341 -2.532275 -0.161032 -0.732818 0.000000 0.000000 0.000000 2.121209 6.991412 1.564300 -34.504337 -9.828556 8.705184 -2.088368 -47.281030 0.005726 -2.045054 1.150074 -0.015825 -0.097112 0.143705 0.000000 0.000000 0.000000 0.000000 0.000000 0.000000 0.000000 16.544837 -23.019908 -0.503588 67.206721 -20.405659 0.840724 3.997010 27.492146 0.000052 5.900204 1.296535 0.065413 0.064005 0.017707 -0.000000 0.000000 0.000000 0.000000 0.000000 0.000000 0.000000 
24.723059 16.202795 4.369784 -13.737552 -86.922541 11.669983 -11.346292 6.614524 1.131327 6.126287 8.300254 21.613853 0.240455 2.376895 22.760930 1.161200 -0.372032 24.169863 -0.765001 -0.000000 -91.251400 9.442604 -0.430404 -0.164435 11.529763 -13.520139 -35.743673 1.512035 -2.550097 42.607415 -1.115151 -3.476076 -10.754740 0.169800 -0.000000 -24.392800 7.279882 -5.976293 -3.703846 1.367077 -6.614471 -3.064219 -4.931784 -6.564747 2.490280 9.228816 -23.691942 -10.664439 -2.585081 -0.166420 -0.727677 0.000000 0.000000 0.000000 2.165990 6.970579 1.550889 -34.750119 -8.901768 9.145967 -2.136135 -46.638324 0.005217 -1.994769 1.115098 -0.014922 -0.101333 0.133228 0.000000 0.000000 0.000000 0.000000 0.000000 0.000000 0.000000 16.811554 -22.978924 -0.556603 66.323481 -19.711930 0.902796 3.981696 27.558477 0.000595 5.751111 1.490513 0.073530 0.065019 0.015496 -0.000000 0.000000 0.000000 0.000000 0.000000 0.000000 0.000000 
24.544919 16.215372 4.319853 -15.267010 -86.676131 13.055575 -11.483951 6.641949 1.224101 6.802027 7.873648 20.920288 0.331746 2.426591 24.440614 1.261726 -1.419539 26.315520 -1.411300 0.000000 -88.361600 9.388668 -0.498263 -0.236435 11.713994 -13.475351 -34.826025 1.506891 -2.523264 42.939907 -1.194314 -3.748013 -11.679127 0.274800 -0.000000 -22.387299 7.364159 -5.937796 -3.741553 1.367695 -6.585221 -3.073876 -4.975382 -6.533049 2.482826 9.294379 -23.682030 -10.652099 -2.642172 -0.172052 -0.724445 0.000000 0.000000 0.000000 2.233995 6.954513 1.536105 -35.013013 -8.008752 9.608775 -2.185403 -45.946348 0.004715 -1.958139 1.097121 -0.014524 -0.105406 0.122453 0.000000 0.000000 0.000000 0.000000 0.000000 0.000000 0.000000 17.118257 -22.924749 -0.603237 65.475877 -18.960432 0.911246 3.969592 27.574463 0.001114 5.619245 1.676834 0.080946 0.065961 0.013326 -0.000000 0.000000 0.000000 0.000000 0.000000 0.000000 0.000000 
